<svg xmlns="http://www.w3.org/2000/svg" height="14" viewBox="0 96 960 960" width="14" fill="#806000"><path d="M342.218 776 480 638.218 617.782 776 680 713.782 542.218 576 680 438.218 617.782 376 480 513.782 342.218 376 280 438.218 417.782 576 280 713.782 342.218 776ZM480 995.218q-87.522 0-163.906-32.96-76.385-32.96-132.888-89.464-56.504-56.503-89.464-132.888Q60.782 663.522 60.782 576t32.96-163.906q32.96-76.385 89.464-132.888 56.503-56.504 132.888-89.464 76.384-32.96 163.906-32.96t163.906 32.96q76.385 32.96 132.888 89.464 56.504 56.503 89.464 132.888 32.96 76.384 32.96 163.906t-32.96 163.906q-32.96 76.385-89.464 132.888-56.503 56.504-132.888 89.464-76.384 32.96-163.906 32.96Z"/></svg>