<svg xmlns="http://www.w3.org/2000/svg" height="14" viewBox="0 96 960 960" width="14" fill="#0070c0"><path d="M280 629.001h400V522.999H280v106.002Zm200 366.217q-87.522 0-163.906-32.96-76.385-32.96-132.888-89.464-56.504-56.503-89.464-132.888Q60.782 663.522 60.782 576t32.96-163.906q32.96-76.385 89.464-132.888 56.503-56.504 132.888-89.464 76.384-32.96 163.906-32.96t163.906 32.96q76.385 32.96 132.888 89.464 56.504 56.503 89.464 132.888 32.96 76.384 32.96 163.906t-32.96 163.906q-32.96 76.385-89.464 132.888-56.503 56.504-132.888 89.464-76.384 32.96-163.906 32.96Z"/></svg>