<svg width="18" height="18" viewBox="0 0 18 18" fill="none" xmlns="http://www.w3.org/2000/svg">
<g clip-path="url(#clip0_376_1851)">
<path d="M0.5 15.125C0.5 14.918 0.668 14.75 0.875 14.75H7.625C7.832 14.75 8 14.918 8 15.125V15.875C8 16.082 7.832 16.25 7.625 16.25H0.875C0.668 16.25 0.5 16.082 0.5 15.875V15.125Z" fill="white" stroke="white" stroke-width="0.75" stroke-linecap="round" stroke-linejoin="round"/>
<path d="M0.5 9.5C0.5 9.293 0.668 9.125 0.875 9.125H13.625C13.832 9.125 14 9.293 14 9.5V10.25C14 10.457 13.832 10.625 13.625 10.625H0.875C0.668 10.625 0.5 10.457 0.5 10.25V9.5Z" fill="white" stroke="white" stroke-width="0.75" stroke-linecap="round" stroke-linejoin="round"/>
<path d="M0.5 3.875C0.5 3.668 0.668 3.5 0.875 3.5H17.375C17.582 3.5 17.75 3.668 17.75 3.875V4.625C17.75 4.832 17.582 5 17.375 5H0.875C0.668 5 0.5 4.832 0.5 4.625V3.875Z" fill="white" stroke="white" stroke-width="0.75" stroke-linecap="round" stroke-linejoin="round"/>
</g>
<defs>
<clipPath id="clip0_376_1851">
<rect width="18" height="18" fill="white"/>
</clipPath>
</defs>
</svg>
