<svg width="20" height="15" viewBox="0 0 20 15" fill="none" xmlns="http://www.w3.org/2000/svg">
<path d="M14.95 12.4499C13.5255 13.5358 11.791 14.1373 10 14.1666C4.16671 14.1666 0.833374 7.49994 0.833374 7.49994C1.86995 5.56819 3.30765 3.88045 5.05004 2.54994M8.25004 1.03327C8.82365 0.899006 9.41093 0.831889 10 0.833273C15.8334 0.833273 19.1667 7.49994 19.1667 7.49994C18.6609 8.44628 18.0576 9.33722 17.3667 10.1583M11.7667 9.26661C11.5378 9.51223 11.2618 9.70924 10.9552 9.84588C10.6485 9.98252 10.3175 10.056 9.98178 10.0619C9.64611 10.0678 9.31268 10.0061 9.00138 9.88035C8.69009 9.75461 8.40731 9.56746 8.16991 9.33007C7.93252 9.09267 7.74537 8.80989 7.61963 8.4986C7.4939 8.1873 7.43215 7.85387 7.43807 7.5182C7.44399 7.18252 7.51746 6.85148 7.6541 6.54481C7.79074 6.23815 7.98775 5.96215 8.23337 5.73327" stroke="#94A3B8" stroke-width="1.5" stroke-linecap="round" stroke-linejoin="round"/>
</svg>
